<svg width="36" height="36" viewBox="0 0 36 36" fill="none" xmlns="http://www.w3.org/2000/svg">
<rect width="36" height="36" rx="8" fill="#97A1F0" fill-opacity="0.24"/>
<path d="M17.9963 8.3999C13.8982 8.3999 10.1904 11.5418 10.1904 16.4009C10.1904 19.5038 12.581 23.153 17.3523 27.3584C17.7231 27.6804 18.2793 27.6804 18.65 27.3584C23.4116 23.153 25.8022 19.5038 25.8022 16.4009C25.8022 11.5418 22.0944 8.3999 17.9963 8.3999ZM17.9963 18.1572C16.923 18.1572 16.0448 17.2791 16.0448 16.2058C16.0448 15.1325 16.923 14.2543 17.9963 14.2543C19.0696 14.2543 19.9478 15.1325 19.9478 16.2058C19.9478 17.2791 19.0696 18.1572 17.9963 18.1572Z" fill="#0C031D"/>
</svg>
