<svg width="36" height="36" viewBox="0 0 36 36" fill="none" xmlns="http://www.w3.org/2000/svg">
<rect width="36" height="36" rx="8" fill="#97A1F0" fill-opacity="0.24"/>
<g clip-path="url(#clip0_7_213)">
<path d="M18.0089 8.3999C18.7316 8.40778 19.4514 8.49147 20.1574 8.64902C20.3076 8.68254 20.4436 8.76216 20.5463 8.87673C20.649 8.9913 20.7134 9.1351 20.7305 9.28805L20.8978 10.7916C20.9215 11.0036 20.9945 11.207 21.1112 11.3856C21.2278 11.5642 21.3847 11.713 21.5692 11.8199C21.7538 11.9267 21.9609 11.9888 22.1738 12.0011C22.3868 12.0133 22.5996 11.9755 22.7953 11.8905L24.1738 11.2849C24.3138 11.2232 24.4696 11.2066 24.6195 11.2373C24.7694 11.268 24.9061 11.3445 25.0107 11.4562C26.0074 12.5206 26.7498 13.7973 27.1818 15.19C27.227 15.3365 27.2255 15.4933 27.1775 15.6389C27.1295 15.7844 27.0374 15.9115 26.914 16.0023L25.6921 16.9043C25.5199 17.0305 25.3799 17.1954 25.2834 17.3858C25.1869 17.5762 25.1366 17.7867 25.1366 18.0002C25.1366 18.2136 25.1869 18.4241 25.2834 18.6145C25.3799 18.8049 25.5199 18.9699 25.6921 19.0961L26.916 19.997C27.0396 20.088 27.1318 20.2151 27.1798 20.3609C27.2278 20.5067 27.2292 20.6638 27.1838 20.8103C26.7519 22.2029 26.0099 23.4795 25.0137 24.5441C24.9093 24.6558 24.7728 24.7324 24.6231 24.7633C24.4734 24.7941 24.3177 24.7778 24.1777 24.7164L22.7933 24.1089C22.5979 24.0232 22.3851 23.9848 22.1721 23.9966C21.9592 24.0085 21.752 24.0703 21.5673 24.1771C21.3827 24.2839 21.2257 24.4327 21.1093 24.6114C20.9928 24.7901 20.92 24.9937 20.8969 25.2058L20.7295 26.7084C20.7128 26.8595 20.6498 27.0018 20.5492 27.1158C20.4485 27.2299 20.3151 27.31 20.1672 27.3454C18.741 27.6847 17.2551 27.6847 15.8289 27.3454C15.6808 27.3102 15.5472 27.2301 15.4464 27.1161C15.3456 27.002 15.2825 26.8596 15.2657 26.7084L15.0993 25.2078C15.0751 24.9964 15.0017 24.7936 14.885 24.6157C14.7682 24.4378 14.6114 24.2898 14.4271 24.1835C14.2427 24.0772 14.0361 24.0156 13.8236 24.0037C13.6112 23.9918 13.3989 24.0298 13.2038 24.1148L11.8194 24.7213C11.6793 24.7829 11.5235 24.7994 11.3735 24.7685C11.2236 24.7377 11.0869 24.661 10.9825 24.549C9.9861 23.4832 9.24444 22.2052 8.81333 20.8113C8.76793 20.6647 8.76933 20.5076 8.81733 20.3619C8.86532 20.2161 8.95754 20.0889 9.08115 19.998L10.3051 19.0961C10.4772 18.9699 10.6172 18.8049 10.7137 18.6145C10.8102 18.4241 10.8605 18.2136 10.8605 18.0002C10.8605 17.7867 10.8102 17.5762 10.7137 17.3858C10.6172 17.1954 10.4772 17.0305 10.3051 16.9043L9.08115 16.0043C8.95754 15.9134 8.86532 15.7862 8.81733 15.6404C8.76933 15.4947 8.76793 15.3376 8.81333 15.191C9.2454 13.7982 9.98774 12.5216 10.9845 11.4572C11.089 11.3455 11.2257 11.2689 11.3756 11.2382C11.5256 11.2076 11.6813 11.2242 11.8214 11.2859L13.1999 11.8914C13.3959 11.9764 13.609 12.0142 13.8222 12.0018C14.0355 11.9894 14.2428 11.9272 14.4276 11.8202C14.6124 11.7131 14.7696 11.5642 14.8864 11.3854C15.0032 11.2066 15.0765 11.0029 15.1003 10.7906L15.2677 9.28805C15.2846 9.1348 15.349 8.99067 15.4519 8.87589C15.5549 8.76111 15.6912 8.68144 15.8417 8.64803C16.5536 8.4907 17.2799 8.40755 18.0089 8.3999ZM17.9971 15.0462C17.2137 15.0462 16.4623 15.3575 15.9083 15.9114C15.3544 16.4654 15.0432 17.2167 15.0432 18.0002C15.0432 18.7836 15.3544 19.5349 15.9083 20.0889C16.4623 20.6429 17.2137 20.9541 17.9971 20.9541C18.7805 20.9541 19.5319 20.6429 20.0858 20.0889C20.6398 19.5349 20.951 18.7836 20.951 18.0002C20.951 17.2167 20.6398 16.4654 20.0858 15.9114C19.5319 15.3575 18.7805 15.0462 17.9971 15.0462Z" fill="#0C031D"/>
</g>
<defs>
<clipPath id="clip0_7_213">
<rect width="20" height="20" fill="white" transform="translate(8 8)"/>
</clipPath>
</defs>
</svg>
