<svg width="36" height="36" viewBox="0 0 36 36" fill="none" xmlns="http://www.w3.org/2000/svg">
<rect width="36" height="36" rx="8" fill="#97A1F0" fill-opacity="0.24"/>
<path fill-rule="evenodd" clip-rule="evenodd" d="M18.0004 12.2465C17.5591 12.2465 17.1222 12.3334 16.7146 12.5023C16.3069 12.6711 15.9365 12.9186 15.6245 13.2306C15.3125 13.5426 15.065 13.913 14.8962 14.3207C14.7273 14.7283 14.6404 15.1652 14.6404 15.6065C14.6404 16.0477 14.7273 16.4847 14.8962 16.8923C15.065 17.3 15.3125 17.6704 15.6245 17.9824C15.9365 18.2944 16.3069 18.5419 16.7146 18.7107C17.1222 18.8796 17.5591 18.9665 18.0004 18.9665C18.8915 18.9665 19.7461 18.6125 20.3763 17.9824C21.0064 17.3522 21.3604 16.4976 21.3604 15.6065C21.3604 14.7154 21.0064 13.8607 20.3763 13.2306C19.7461 12.6005 18.8915 12.2465 18.0004 12.2465ZM16.5604 19.9265C15.542 19.9265 14.5652 20.3311 13.8451 21.0512C13.125 21.7713 12.7204 22.7481 12.7204 23.7665C12.7204 24.8225 13.5844 25.6865 14.6404 25.6865H21.3604C21.8696 25.6865 22.358 25.4842 22.718 25.1241C23.0781 24.7641 23.2804 24.2757 23.2804 23.7665C23.2804 22.7481 22.8758 21.7713 22.1557 21.0512C21.4355 20.3311 20.4588 19.9265 19.4404 19.9265H16.5604ZM23.0884 16.9505C23.3968 15.787 23.2985 14.553 22.8096 13.4531C22.3207 12.3531 21.4707 11.4532 20.4004 10.9025C20.9764 10.5185 21.6484 10.3265 22.3204 10.3265C23.1395 10.3335 23.9278 10.6396 24.5371 11.187C25.1464 11.7345 25.5348 12.4857 25.6291 13.2994C25.7234 14.1131 25.5173 14.9332 25.0494 15.6056C24.5815 16.2779 23.8842 16.7562 23.0884 16.9505ZM25.2004 23.7665H25.6804C26.1896 23.7665 26.678 23.5642 27.038 23.2041C27.3981 22.8441 27.6004 22.3557 27.6004 21.8465C27.6004 20.8281 27.1958 19.8513 26.4757 19.1312C25.7555 18.4111 24.7788 18.0065 23.7604 18.0065H22.7044L22.2244 18.7745C24.0484 19.7345 25.2004 21.6545 25.2004 23.7665ZM10.3204 13.6865C10.3155 13.0703 10.4801 12.4646 10.7963 11.9357C11.1125 11.4068 11.5681 10.9751 12.1131 10.6877C12.6582 10.4002 13.2718 10.2683 13.8869 10.3062C14.5019 10.3441 15.0947 10.5504 15.6004 10.9025C14.5101 11.4567 13.646 12.3724 13.1557 13.4929C12.6655 14.6135 12.5795 15.8695 12.9124 17.0465C12.1598 16.8701 11.491 16.4395 11.0188 15.8275C10.5467 15.2154 10.3 14.4592 10.3204 13.6865ZM13.2964 18.0065H12.2404C11.222 18.0065 10.2452 18.4111 9.5251 19.1312C8.80496 19.8513 8.40039 20.8281 8.40039 21.8465C8.40039 22.9025 9.26439 23.7665 10.3204 23.7665H10.8004C10.7997 22.7548 11.0656 21.7607 11.5712 20.8844C12.0767 20.0081 12.8042 19.2803 13.6804 18.7745L13.2964 18.0065Z" fill="#0C031D"/>
</svg>
