<svg width="36" height="36" viewBox="0 0 36 36" fill="none" xmlns="http://www.w3.org/2000/svg">
<rect width="36" height="36" rx="8" fill="#97A1F0" fill-opacity="0.24"/>
<path fill-rule="evenodd" clip-rule="evenodd" d="M9.33799 11.4776C8.40039 12.4142 8.40039 13.9235 8.40039 16.94V19.0734C8.40039 22.0899 8.40039 23.5992 9.33799 24.5358C10.2745 25.4734 11.7839 25.4734 14.8004 25.4734H21.2004C24.2169 25.4734 25.7263 25.4734 26.6628 24.5358C27.6004 23.5992 27.6004 22.0899 27.6004 19.0734V16.94C27.6004 13.9235 27.6004 12.4142 26.6628 11.4776C25.7263 10.54 24.2169 10.54 21.2004 10.54H14.8004C11.7839 10.54 10.2745 10.54 9.33799 11.4776ZM12.1924 13.9192C11.957 13.7622 11.6689 13.7052 11.3915 13.7606C11.114 13.816 10.8699 13.9793 10.7129 14.2147C10.5559 14.4501 10.4988 14.7382 10.5542 15.0156C10.6097 15.2931 10.773 15.5372 11.0084 15.6942L16.8175 19.5662C17.1678 19.7996 17.5794 19.9242 18.0004 19.9242C18.4214 19.9242 18.833 19.7996 19.1833 19.5662L24.9924 15.6942C25.2278 15.5372 25.3911 15.2931 25.4465 15.0156C25.5019 14.7382 25.4449 14.4501 25.2879 14.2147C25.1308 13.9793 24.8868 13.816 24.6093 13.7606C24.3319 13.7052 24.0438 13.7622 23.8084 13.9192L18.0004 17.7912L12.1924 13.9192Z" fill="#0C031D"/>
</svg>
