<svg width="36" height="36" viewBox="0 0 36 36" fill="none" xmlns="http://www.w3.org/2000/svg">
<rect width="36" height="36" rx="8" fill="#97A1F0" fill-opacity="0.24"/>
<path d="M12.2317 16.0714C12.2312 14.8737 12.6038 13.7056 13.2976 12.7294C13.9914 11.7532 14.9721 11.0174 16.1034 10.6242C16.0596 10.3497 16.0758 10.069 16.151 9.80143C16.2263 9.53386 16.3586 9.28579 16.539 9.07434C16.7194 8.86288 16.9435 8.69308 17.1959 8.57664C17.4482 8.4602 17.7229 8.3999 18.0008 8.3999C18.2787 8.3999 18.5534 8.4602 18.8057 8.57664C19.0581 8.69308 19.2822 8.86288 19.4626 9.07434C19.643 9.28579 19.7753 9.53386 19.8505 9.80143C19.9257 10.069 19.942 10.3497 19.8982 10.6242C21.0277 11.019 22.0063 11.7555 22.6983 12.7316C23.3903 13.7077 23.7615 14.8749 23.7602 16.0714V21.8356L26.3637 23.5713C26.5378 23.6874 26.6424 23.8827 26.6424 24.092C26.6424 24.4376 26.3622 24.7178 26.0166 24.7178H9.9754C9.62979 24.7178 9.34961 24.4376 9.34961 24.092C9.34961 23.8827 9.45418 23.6874 9.62828 23.5713L12.2317 21.8356V16.0714ZM19.9174 25.6785C19.9174 26.1881 19.715 26.6768 19.3546 27.0371C18.9943 27.3975 18.5056 27.5999 17.996 27.5999C17.4864 27.5999 16.9977 27.3975 16.6373 27.0371C16.277 26.6768 16.0746 26.1881 16.0746 25.6785H19.9174Z" fill="#0C031D"/>
</svg>
