<svg width="40" height="40" viewBox="0 0 40 40" fill="none" xmlns="http://www.w3.org/2000/svg">
<rect width="40" height="40" rx="8" fill="#97A1F0" fill-opacity="0.24"/>
<path d="M16.4 17.5999C17.3548 17.5999 18.2705 17.2206 18.9456 16.5455C19.6207 15.8704 20 14.9547 20 13.9999C20 13.0451 19.6207 12.1294 18.9456 11.4543C18.2705 10.7792 17.3548 10.3999 16.4 10.3999C15.4452 10.3999 14.5296 10.7792 13.8544 11.4543C13.1793 12.1294 12.8 13.0451 12.8 13.9999C12.8 14.9547 13.1793 15.8704 13.8544 16.5455C14.5296 17.2206 15.4452 17.5999 16.4 17.5999ZM25.4 18.7999C26.1957 18.7999 26.9587 18.4838 27.5213 17.9212C28.0839 17.3586 28.4 16.5956 28.4 15.7999C28.4 15.0043 28.0839 14.2412 27.5213 13.6786C26.9587 13.116 26.1957 12.7999 25.4 12.7999C24.6044 12.7999 23.8413 13.116 23.2787 13.6786C22.7161 14.2412 22.4 15.0043 22.4 15.7999C22.4 16.5956 22.7161 17.3586 23.2787 17.9212C23.8413 18.4838 24.6044 18.7999 25.4 18.7999ZM9.93802 27.7135C9.70274 27.5669 9.51377 27.3566 9.39294 27.1071C9.27211 26.8576 9.22437 26.579 9.25522 26.3035C9.47645 24.5648 10.3241 22.9664 11.6394 21.8078C12.9547 20.6493 14.6473 20.0102 16.4 20.0102C18.1528 20.0102 19.8454 20.6493 21.1606 21.8078C22.4759 22.9664 23.3236 24.5648 23.5448 26.3035C23.6144 26.8639 23.3384 27.4075 22.8608 27.7123C20.9327 28.9479 18.69 29.6031 16.4 29.5999C14.1097 29.6037 11.8666 28.9489 9.93802 27.7135ZM25.4 27.1999H25.2728C25.3568 26.8435 25.3784 26.4667 25.3304 26.0803C25.1253 24.4307 24.4655 22.8706 23.4248 21.5743C24.0946 21.3108 24.8102 21.1837 25.5298 21.2006C26.2493 21.2175 26.9582 21.378 27.6148 21.6727C28.2715 21.9673 28.8626 22.3902 29.3535 22.9166C29.8445 23.4429 30.2253 24.062 30.4736 24.7375C30.5499 24.9531 30.5485 25.1887 30.4696 25.4034C30.3908 25.6181 30.2394 25.7985 30.0416 25.9135C28.6409 26.758 27.0356 27.2029 25.4 27.1999Z" fill="#0C031D"/>
</svg>
